%
M48
M72
T01C0.01500
T02C0.02756
T03C0.03150
T04C0.03200
T05C0.03543
T06C0.04000
T07C0.10000
%
T01
X157750Y38500
X236500Y51625
X256375Y45250
X272125Y59875
X331000Y59875
X380875Y62500
X384250Y41500
X232000Y17875
X199000Y60250
X361000Y84250
T02
X171000Y33500
X161000Y33500
X156000Y23500
X176000Y18500
X196000Y18500
X216000Y13500
X216000Y23500
X156000Y13500
T03
X316000Y23500
X326000Y23500
X336000Y23500
X346000Y23500
X356000Y23500
X366000Y23500
X376000Y23500
X386000Y23500
X386000Y73500
X376000Y73500
X366000Y73500
X356000Y73500
X346000Y73500
X336000Y73500
X326000Y73500
X316000Y73500
T04
X21000Y18500
X21000Y28500
X101000Y48500
X111000Y48500
X121000Y48500
X131000Y48500
X141000Y48500
X151000Y48500
X161000Y48500
X171000Y48500
X181000Y48500
X191000Y48500
X201000Y48500
X211000Y48500
X221000Y48500
X231000Y48500
X231000Y78500
X221000Y78500
X211000Y78500
X201000Y78500
X191000Y78500
X181000Y78500
X171000Y78500
X161000Y78500
X151000Y78500
X141000Y78500
X131000Y78500
X121000Y78500
X111000Y78500
X101000Y78500
T05
X81000Y78500
X81000Y48500
T06
X66000Y73500
X56000Y73500
X41000Y73500
X31000Y73500
X21000Y73500
X11000Y73500
T07
X21000Y48500
X471000Y48500
M30
