G75*
%MOIN*%
%OFA0B0*%
%FSLAX25Y25*%
%IPPOS*%
%LPD*%
%AMOC8*
5,1,8,0,0,1.08239X$1,22.5*
%
%ADD10C,0.00500*%
%ADD11C,0.03200*%
%ADD12C,0.01000*%
%ADD13C,0.00600*%
D10*
X0311000Y0018500D02*
X0311000Y0078500D01*
X0391000Y0078500D01*
X0391000Y0018500D01*
X0311000Y0018500D01*
D11*
X0327816Y0030100D02*
X0340093Y0030100D01*
X0346231Y0036239D01*
X0346231Y0042377D01*
X0340093Y0048516D01*
X0327816Y0048516D01*
X0321677Y0042377D01*
X0321677Y0036239D01*
X0327816Y0030100D01*
X0358509Y0036239D02*
X0364647Y0030100D01*
X0376924Y0030100D01*
X0383063Y0036239D01*
X0383063Y0042377D01*
X0376924Y0048516D01*
X0364647Y0048516D01*
X0358509Y0042377D01*
X0358509Y0036239D01*
X0364647Y0048516D02*
X0358509Y0054654D01*
X0358509Y0060793D01*
X0364647Y0066931D01*
X0376924Y0066931D01*
X0383063Y0060793D01*
X0383063Y0054654D01*
X0376924Y0048516D01*
X0346231Y0054654D02*
X0346231Y0060793D01*
X0340093Y0066931D01*
X0327816Y0066931D01*
X0321677Y0060793D01*
X0321677Y0054654D01*
X0327816Y0048516D01*
X0340093Y0048516D02*
X0346231Y0054654D01*
D12*
X0261689Y0060311D02*
X0261689Y0036689D01*
X0285311Y0036689D01*
X0285311Y0060311D01*
X0261689Y0060311D01*
X0266610Y0048500D02*
X0266612Y0048669D01*
X0266618Y0048838D01*
X0266629Y0049007D01*
X0266643Y0049175D01*
X0266662Y0049343D01*
X0266685Y0049511D01*
X0266711Y0049678D01*
X0266742Y0049844D01*
X0266777Y0050010D01*
X0266816Y0050174D01*
X0266860Y0050338D01*
X0266907Y0050500D01*
X0266958Y0050661D01*
X0267013Y0050821D01*
X0267072Y0050980D01*
X0267134Y0051137D01*
X0267201Y0051292D01*
X0267272Y0051446D01*
X0267346Y0051598D01*
X0267424Y0051748D01*
X0267505Y0051896D01*
X0267590Y0052042D01*
X0267679Y0052186D01*
X0267771Y0052328D01*
X0267867Y0052467D01*
X0267966Y0052604D01*
X0268068Y0052739D01*
X0268174Y0052871D01*
X0268283Y0053000D01*
X0268395Y0053127D01*
X0268510Y0053251D01*
X0268628Y0053372D01*
X0268749Y0053490D01*
X0268873Y0053605D01*
X0269000Y0053717D01*
X0269129Y0053826D01*
X0269261Y0053932D01*
X0269396Y0054034D01*
X0269533Y0054133D01*
X0269672Y0054229D01*
X0269814Y0054321D01*
X0269958Y0054410D01*
X0270104Y0054495D01*
X0270252Y0054576D01*
X0270402Y0054654D01*
X0270554Y0054728D01*
X0270708Y0054799D01*
X0270863Y0054866D01*
X0271020Y0054928D01*
X0271179Y0054987D01*
X0271339Y0055042D01*
X0271500Y0055093D01*
X0271662Y0055140D01*
X0271826Y0055184D01*
X0271990Y0055223D01*
X0272156Y0055258D01*
X0272322Y0055289D01*
X0272489Y0055315D01*
X0272657Y0055338D01*
X0272825Y0055357D01*
X0272993Y0055371D01*
X0273162Y0055382D01*
X0273331Y0055388D01*
X0273500Y0055390D01*
X0273669Y0055388D01*
X0273838Y0055382D01*
X0274007Y0055371D01*
X0274175Y0055357D01*
X0274343Y0055338D01*
X0274511Y0055315D01*
X0274678Y0055289D01*
X0274844Y0055258D01*
X0275010Y0055223D01*
X0275174Y0055184D01*
X0275338Y0055140D01*
X0275500Y0055093D01*
X0275661Y0055042D01*
X0275821Y0054987D01*
X0275980Y0054928D01*
X0276137Y0054866D01*
X0276292Y0054799D01*
X0276446Y0054728D01*
X0276598Y0054654D01*
X0276748Y0054576D01*
X0276896Y0054495D01*
X0277042Y0054410D01*
X0277186Y0054321D01*
X0277328Y0054229D01*
X0277467Y0054133D01*
X0277604Y0054034D01*
X0277739Y0053932D01*
X0277871Y0053826D01*
X0278000Y0053717D01*
X0278127Y0053605D01*
X0278251Y0053490D01*
X0278372Y0053372D01*
X0278490Y0053251D01*
X0278605Y0053127D01*
X0278717Y0053000D01*
X0278826Y0052871D01*
X0278932Y0052739D01*
X0279034Y0052604D01*
X0279133Y0052467D01*
X0279229Y0052328D01*
X0279321Y0052186D01*
X0279410Y0052042D01*
X0279495Y0051896D01*
X0279576Y0051748D01*
X0279654Y0051598D01*
X0279728Y0051446D01*
X0279799Y0051292D01*
X0279866Y0051137D01*
X0279928Y0050980D01*
X0279987Y0050821D01*
X0280042Y0050661D01*
X0280093Y0050500D01*
X0280140Y0050338D01*
X0280184Y0050174D01*
X0280223Y0050010D01*
X0280258Y0049844D01*
X0280289Y0049678D01*
X0280315Y0049511D01*
X0280338Y0049343D01*
X0280357Y0049175D01*
X0280371Y0049007D01*
X0280382Y0048838D01*
X0280388Y0048669D01*
X0280390Y0048500D01*
X0280388Y0048331D01*
X0280382Y0048162D01*
X0280371Y0047993D01*
X0280357Y0047825D01*
X0280338Y0047657D01*
X0280315Y0047489D01*
X0280289Y0047322D01*
X0280258Y0047156D01*
X0280223Y0046990D01*
X0280184Y0046826D01*
X0280140Y0046662D01*
X0280093Y0046500D01*
X0280042Y0046339D01*
X0279987Y0046179D01*
X0279928Y0046020D01*
X0279866Y0045863D01*
X0279799Y0045708D01*
X0279728Y0045554D01*
X0279654Y0045402D01*
X0279576Y0045252D01*
X0279495Y0045104D01*
X0279410Y0044958D01*
X0279321Y0044814D01*
X0279229Y0044672D01*
X0279133Y0044533D01*
X0279034Y0044396D01*
X0278932Y0044261D01*
X0278826Y0044129D01*
X0278717Y0044000D01*
X0278605Y0043873D01*
X0278490Y0043749D01*
X0278372Y0043628D01*
X0278251Y0043510D01*
X0278127Y0043395D01*
X0278000Y0043283D01*
X0277871Y0043174D01*
X0277739Y0043068D01*
X0277604Y0042966D01*
X0277467Y0042867D01*
X0277328Y0042771D01*
X0277186Y0042679D01*
X0277042Y0042590D01*
X0276896Y0042505D01*
X0276748Y0042424D01*
X0276598Y0042346D01*
X0276446Y0042272D01*
X0276292Y0042201D01*
X0276137Y0042134D01*
X0275980Y0042072D01*
X0275821Y0042013D01*
X0275661Y0041958D01*
X0275500Y0041907D01*
X0275338Y0041860D01*
X0275174Y0041816D01*
X0275010Y0041777D01*
X0274844Y0041742D01*
X0274678Y0041711D01*
X0274511Y0041685D01*
X0274343Y0041662D01*
X0274175Y0041643D01*
X0274007Y0041629D01*
X0273838Y0041618D01*
X0273669Y0041612D01*
X0273500Y0041610D01*
X0273331Y0041612D01*
X0273162Y0041618D01*
X0272993Y0041629D01*
X0272825Y0041643D01*
X0272657Y0041662D01*
X0272489Y0041685D01*
X0272322Y0041711D01*
X0272156Y0041742D01*
X0271990Y0041777D01*
X0271826Y0041816D01*
X0271662Y0041860D01*
X0271500Y0041907D01*
X0271339Y0041958D01*
X0271179Y0042013D01*
X0271020Y0042072D01*
X0270863Y0042134D01*
X0270708Y0042201D01*
X0270554Y0042272D01*
X0270402Y0042346D01*
X0270252Y0042424D01*
X0270104Y0042505D01*
X0269958Y0042590D01*
X0269814Y0042679D01*
X0269672Y0042771D01*
X0269533Y0042867D01*
X0269396Y0042966D01*
X0269261Y0043068D01*
X0269129Y0043174D01*
X0269000Y0043283D01*
X0268873Y0043395D01*
X0268749Y0043510D01*
X0268628Y0043628D01*
X0268510Y0043749D01*
X0268395Y0043873D01*
X0268283Y0044000D01*
X0268174Y0044129D01*
X0268068Y0044261D01*
X0267966Y0044396D01*
X0267867Y0044533D01*
X0267771Y0044672D01*
X0267679Y0044814D01*
X0267590Y0044958D01*
X0267505Y0045104D01*
X0267424Y0045252D01*
X0267346Y0045402D01*
X0267272Y0045554D01*
X0267201Y0045708D01*
X0267134Y0045863D01*
X0267072Y0046020D01*
X0267013Y0046179D01*
X0266958Y0046339D01*
X0266907Y0046500D01*
X0266860Y0046662D01*
X0266816Y0046826D01*
X0266777Y0046990D01*
X0266742Y0047156D01*
X0266711Y0047322D01*
X0266685Y0047489D01*
X0266662Y0047657D01*
X0266643Y0047825D01*
X0266629Y0047993D01*
X0266618Y0048162D01*
X0266612Y0048331D01*
X0266610Y0048500D01*
X0419189Y0036689D02*
X0419189Y0060311D01*
X0442811Y0060311D01*
X0442811Y0036689D01*
X0419189Y0036689D01*
X0424110Y0048500D02*
X0424112Y0048669D01*
X0424118Y0048838D01*
X0424129Y0049007D01*
X0424143Y0049175D01*
X0424162Y0049343D01*
X0424185Y0049511D01*
X0424211Y0049678D01*
X0424242Y0049844D01*
X0424277Y0050010D01*
X0424316Y0050174D01*
X0424360Y0050338D01*
X0424407Y0050500D01*
X0424458Y0050661D01*
X0424513Y0050821D01*
X0424572Y0050980D01*
X0424634Y0051137D01*
X0424701Y0051292D01*
X0424772Y0051446D01*
X0424846Y0051598D01*
X0424924Y0051748D01*
X0425005Y0051896D01*
X0425090Y0052042D01*
X0425179Y0052186D01*
X0425271Y0052328D01*
X0425367Y0052467D01*
X0425466Y0052604D01*
X0425568Y0052739D01*
X0425674Y0052871D01*
X0425783Y0053000D01*
X0425895Y0053127D01*
X0426010Y0053251D01*
X0426128Y0053372D01*
X0426249Y0053490D01*
X0426373Y0053605D01*
X0426500Y0053717D01*
X0426629Y0053826D01*
X0426761Y0053932D01*
X0426896Y0054034D01*
X0427033Y0054133D01*
X0427172Y0054229D01*
X0427314Y0054321D01*
X0427458Y0054410D01*
X0427604Y0054495D01*
X0427752Y0054576D01*
X0427902Y0054654D01*
X0428054Y0054728D01*
X0428208Y0054799D01*
X0428363Y0054866D01*
X0428520Y0054928D01*
X0428679Y0054987D01*
X0428839Y0055042D01*
X0429000Y0055093D01*
X0429162Y0055140D01*
X0429326Y0055184D01*
X0429490Y0055223D01*
X0429656Y0055258D01*
X0429822Y0055289D01*
X0429989Y0055315D01*
X0430157Y0055338D01*
X0430325Y0055357D01*
X0430493Y0055371D01*
X0430662Y0055382D01*
X0430831Y0055388D01*
X0431000Y0055390D01*
X0431169Y0055388D01*
X0431338Y0055382D01*
X0431507Y0055371D01*
X0431675Y0055357D01*
X0431843Y0055338D01*
X0432011Y0055315D01*
X0432178Y0055289D01*
X0432344Y0055258D01*
X0432510Y0055223D01*
X0432674Y0055184D01*
X0432838Y0055140D01*
X0433000Y0055093D01*
X0433161Y0055042D01*
X0433321Y0054987D01*
X0433480Y0054928D01*
X0433637Y0054866D01*
X0433792Y0054799D01*
X0433946Y0054728D01*
X0434098Y0054654D01*
X0434248Y0054576D01*
X0434396Y0054495D01*
X0434542Y0054410D01*
X0434686Y0054321D01*
X0434828Y0054229D01*
X0434967Y0054133D01*
X0435104Y0054034D01*
X0435239Y0053932D01*
X0435371Y0053826D01*
X0435500Y0053717D01*
X0435627Y0053605D01*
X0435751Y0053490D01*
X0435872Y0053372D01*
X0435990Y0053251D01*
X0436105Y0053127D01*
X0436217Y0053000D01*
X0436326Y0052871D01*
X0436432Y0052739D01*
X0436534Y0052604D01*
X0436633Y0052467D01*
X0436729Y0052328D01*
X0436821Y0052186D01*
X0436910Y0052042D01*
X0436995Y0051896D01*
X0437076Y0051748D01*
X0437154Y0051598D01*
X0437228Y0051446D01*
X0437299Y0051292D01*
X0437366Y0051137D01*
X0437428Y0050980D01*
X0437487Y0050821D01*
X0437542Y0050661D01*
X0437593Y0050500D01*
X0437640Y0050338D01*
X0437684Y0050174D01*
X0437723Y0050010D01*
X0437758Y0049844D01*
X0437789Y0049678D01*
X0437815Y0049511D01*
X0437838Y0049343D01*
X0437857Y0049175D01*
X0437871Y0049007D01*
X0437882Y0048838D01*
X0437888Y0048669D01*
X0437890Y0048500D01*
X0437888Y0048331D01*
X0437882Y0048162D01*
X0437871Y0047993D01*
X0437857Y0047825D01*
X0437838Y0047657D01*
X0437815Y0047489D01*
X0437789Y0047322D01*
X0437758Y0047156D01*
X0437723Y0046990D01*
X0437684Y0046826D01*
X0437640Y0046662D01*
X0437593Y0046500D01*
X0437542Y0046339D01*
X0437487Y0046179D01*
X0437428Y0046020D01*
X0437366Y0045863D01*
X0437299Y0045708D01*
X0437228Y0045554D01*
X0437154Y0045402D01*
X0437076Y0045252D01*
X0436995Y0045104D01*
X0436910Y0044958D01*
X0436821Y0044814D01*
X0436729Y0044672D01*
X0436633Y0044533D01*
X0436534Y0044396D01*
X0436432Y0044261D01*
X0436326Y0044129D01*
X0436217Y0044000D01*
X0436105Y0043873D01*
X0435990Y0043749D01*
X0435872Y0043628D01*
X0435751Y0043510D01*
X0435627Y0043395D01*
X0435500Y0043283D01*
X0435371Y0043174D01*
X0435239Y0043068D01*
X0435104Y0042966D01*
X0434967Y0042867D01*
X0434828Y0042771D01*
X0434686Y0042679D01*
X0434542Y0042590D01*
X0434396Y0042505D01*
X0434248Y0042424D01*
X0434098Y0042346D01*
X0433946Y0042272D01*
X0433792Y0042201D01*
X0433637Y0042134D01*
X0433480Y0042072D01*
X0433321Y0042013D01*
X0433161Y0041958D01*
X0433000Y0041907D01*
X0432838Y0041860D01*
X0432674Y0041816D01*
X0432510Y0041777D01*
X0432344Y0041742D01*
X0432178Y0041711D01*
X0432011Y0041685D01*
X0431843Y0041662D01*
X0431675Y0041643D01*
X0431507Y0041629D01*
X0431338Y0041618D01*
X0431169Y0041612D01*
X0431000Y0041610D01*
X0430831Y0041612D01*
X0430662Y0041618D01*
X0430493Y0041629D01*
X0430325Y0041643D01*
X0430157Y0041662D01*
X0429989Y0041685D01*
X0429822Y0041711D01*
X0429656Y0041742D01*
X0429490Y0041777D01*
X0429326Y0041816D01*
X0429162Y0041860D01*
X0429000Y0041907D01*
X0428839Y0041958D01*
X0428679Y0042013D01*
X0428520Y0042072D01*
X0428363Y0042134D01*
X0428208Y0042201D01*
X0428054Y0042272D01*
X0427902Y0042346D01*
X0427752Y0042424D01*
X0427604Y0042505D01*
X0427458Y0042590D01*
X0427314Y0042679D01*
X0427172Y0042771D01*
X0427033Y0042867D01*
X0426896Y0042966D01*
X0426761Y0043068D01*
X0426629Y0043174D01*
X0426500Y0043283D01*
X0426373Y0043395D01*
X0426249Y0043510D01*
X0426128Y0043628D01*
X0426010Y0043749D01*
X0425895Y0043873D01*
X0425783Y0044000D01*
X0425674Y0044129D01*
X0425568Y0044261D01*
X0425466Y0044396D01*
X0425367Y0044533D01*
X0425271Y0044672D01*
X0425179Y0044814D01*
X0425090Y0044958D01*
X0425005Y0045104D01*
X0424924Y0045252D01*
X0424846Y0045402D01*
X0424772Y0045554D01*
X0424701Y0045708D01*
X0424634Y0045863D01*
X0424572Y0046020D01*
X0424513Y0046179D01*
X0424458Y0046339D01*
X0424407Y0046500D01*
X0424360Y0046662D01*
X0424316Y0046826D01*
X0424277Y0046990D01*
X0424242Y0047156D01*
X0424211Y0047322D01*
X0424185Y0047489D01*
X0424162Y0047657D01*
X0424143Y0047825D01*
X0424129Y0047993D01*
X0424118Y0048162D01*
X0424112Y0048331D01*
X0424110Y0048500D01*
D13*
X0433638Y0077319D02*
X0433638Y0079681D01*
X0438362Y0079681D02*
X0438362Y0077319D01*
X0278362Y0077319D02*
X0278362Y0079681D01*
X0273638Y0079681D02*
X0273638Y0077319D01*
M02*
