G75*
%MOIN*%
%OFA0B0*%
%FSLAX25Y25*%
%IPPOS*%
%LPD*%
%AMOC8*
5,1,8,0,0,1.08239X$1,22.5*
%
%ADD10C,0.00000*%
D10*
X0001000Y0008500D02*
X0001000Y0088461D01*
X0491000Y0088461D01*
X0491000Y0008500D01*
X0001000Y0008500D01*
X0016000Y0048500D02*
X0016002Y0048641D01*
X0016008Y0048782D01*
X0016018Y0048922D01*
X0016032Y0049062D01*
X0016050Y0049202D01*
X0016071Y0049341D01*
X0016097Y0049480D01*
X0016126Y0049618D01*
X0016160Y0049754D01*
X0016197Y0049890D01*
X0016238Y0050025D01*
X0016283Y0050159D01*
X0016332Y0050291D01*
X0016384Y0050422D01*
X0016440Y0050551D01*
X0016500Y0050678D01*
X0016563Y0050804D01*
X0016629Y0050928D01*
X0016700Y0051051D01*
X0016773Y0051171D01*
X0016850Y0051289D01*
X0016930Y0051405D01*
X0017014Y0051518D01*
X0017100Y0051629D01*
X0017190Y0051738D01*
X0017283Y0051844D01*
X0017378Y0051947D01*
X0017477Y0052048D01*
X0017578Y0052146D01*
X0017682Y0052241D01*
X0017789Y0052333D01*
X0017898Y0052422D01*
X0018010Y0052507D01*
X0018124Y0052590D01*
X0018240Y0052670D01*
X0018359Y0052746D01*
X0018480Y0052818D01*
X0018602Y0052888D01*
X0018727Y0052953D01*
X0018853Y0053016D01*
X0018981Y0053074D01*
X0019111Y0053129D01*
X0019242Y0053181D01*
X0019375Y0053228D01*
X0019509Y0053272D01*
X0019644Y0053313D01*
X0019780Y0053349D01*
X0019917Y0053381D01*
X0020055Y0053410D01*
X0020193Y0053435D01*
X0020333Y0053455D01*
X0020473Y0053472D01*
X0020613Y0053485D01*
X0020754Y0053494D01*
X0020894Y0053499D01*
X0021035Y0053500D01*
X0021176Y0053497D01*
X0021317Y0053490D01*
X0021457Y0053479D01*
X0021597Y0053464D01*
X0021737Y0053445D01*
X0021876Y0053423D01*
X0022014Y0053396D01*
X0022152Y0053366D01*
X0022288Y0053331D01*
X0022424Y0053293D01*
X0022558Y0053251D01*
X0022692Y0053205D01*
X0022824Y0053156D01*
X0022954Y0053102D01*
X0023083Y0053045D01*
X0023210Y0052985D01*
X0023336Y0052921D01*
X0023459Y0052853D01*
X0023581Y0052782D01*
X0023701Y0052708D01*
X0023818Y0052630D01*
X0023933Y0052549D01*
X0024046Y0052465D01*
X0024157Y0052378D01*
X0024265Y0052287D01*
X0024370Y0052194D01*
X0024473Y0052097D01*
X0024573Y0051998D01*
X0024670Y0051896D01*
X0024764Y0051791D01*
X0024855Y0051684D01*
X0024943Y0051574D01*
X0025028Y0051462D01*
X0025110Y0051347D01*
X0025189Y0051230D01*
X0025264Y0051111D01*
X0025336Y0050990D01*
X0025404Y0050867D01*
X0025469Y0050742D01*
X0025531Y0050615D01*
X0025588Y0050486D01*
X0025643Y0050356D01*
X0025693Y0050225D01*
X0025740Y0050092D01*
X0025783Y0049958D01*
X0025822Y0049822D01*
X0025857Y0049686D01*
X0025889Y0049549D01*
X0025916Y0049411D01*
X0025940Y0049272D01*
X0025960Y0049132D01*
X0025976Y0048992D01*
X0025988Y0048852D01*
X0025996Y0048711D01*
X0026000Y0048570D01*
X0026000Y0048430D01*
X0025996Y0048289D01*
X0025988Y0048148D01*
X0025976Y0048008D01*
X0025960Y0047868D01*
X0025940Y0047728D01*
X0025916Y0047589D01*
X0025889Y0047451D01*
X0025857Y0047314D01*
X0025822Y0047178D01*
X0025783Y0047042D01*
X0025740Y0046908D01*
X0025693Y0046775D01*
X0025643Y0046644D01*
X0025588Y0046514D01*
X0025531Y0046385D01*
X0025469Y0046258D01*
X0025404Y0046133D01*
X0025336Y0046010D01*
X0025264Y0045889D01*
X0025189Y0045770D01*
X0025110Y0045653D01*
X0025028Y0045538D01*
X0024943Y0045426D01*
X0024855Y0045316D01*
X0024764Y0045209D01*
X0024670Y0045104D01*
X0024573Y0045002D01*
X0024473Y0044903D01*
X0024370Y0044806D01*
X0024265Y0044713D01*
X0024157Y0044622D01*
X0024046Y0044535D01*
X0023933Y0044451D01*
X0023818Y0044370D01*
X0023701Y0044292D01*
X0023581Y0044218D01*
X0023459Y0044147D01*
X0023336Y0044079D01*
X0023210Y0044015D01*
X0023083Y0043955D01*
X0022954Y0043898D01*
X0022824Y0043844D01*
X0022692Y0043795D01*
X0022558Y0043749D01*
X0022424Y0043707D01*
X0022288Y0043669D01*
X0022152Y0043634D01*
X0022014Y0043604D01*
X0021876Y0043577D01*
X0021737Y0043555D01*
X0021597Y0043536D01*
X0021457Y0043521D01*
X0021317Y0043510D01*
X0021176Y0043503D01*
X0021035Y0043500D01*
X0020894Y0043501D01*
X0020754Y0043506D01*
X0020613Y0043515D01*
X0020473Y0043528D01*
X0020333Y0043545D01*
X0020193Y0043565D01*
X0020055Y0043590D01*
X0019917Y0043619D01*
X0019780Y0043651D01*
X0019644Y0043687D01*
X0019509Y0043728D01*
X0019375Y0043772D01*
X0019242Y0043819D01*
X0019111Y0043871D01*
X0018981Y0043926D01*
X0018853Y0043984D01*
X0018727Y0044047D01*
X0018602Y0044112D01*
X0018480Y0044182D01*
X0018359Y0044254D01*
X0018240Y0044330D01*
X0018124Y0044410D01*
X0018010Y0044493D01*
X0017898Y0044578D01*
X0017789Y0044667D01*
X0017682Y0044759D01*
X0017578Y0044854D01*
X0017477Y0044952D01*
X0017378Y0045053D01*
X0017283Y0045156D01*
X0017190Y0045262D01*
X0017100Y0045371D01*
X0017014Y0045482D01*
X0016930Y0045595D01*
X0016850Y0045711D01*
X0016773Y0045829D01*
X0016700Y0045949D01*
X0016629Y0046072D01*
X0016563Y0046196D01*
X0016500Y0046322D01*
X0016440Y0046449D01*
X0016384Y0046578D01*
X0016332Y0046709D01*
X0016283Y0046841D01*
X0016238Y0046975D01*
X0016197Y0047110D01*
X0016160Y0047246D01*
X0016126Y0047382D01*
X0016097Y0047520D01*
X0016071Y0047659D01*
X0016050Y0047798D01*
X0016032Y0047938D01*
X0016018Y0048078D01*
X0016008Y0048218D01*
X0016002Y0048359D01*
X0016000Y0048500D01*
X0466000Y0048500D02*
X0466002Y0048641D01*
X0466008Y0048782D01*
X0466018Y0048922D01*
X0466032Y0049062D01*
X0466050Y0049202D01*
X0466071Y0049341D01*
X0466097Y0049480D01*
X0466126Y0049618D01*
X0466160Y0049754D01*
X0466197Y0049890D01*
X0466238Y0050025D01*
X0466283Y0050159D01*
X0466332Y0050291D01*
X0466384Y0050422D01*
X0466440Y0050551D01*
X0466500Y0050678D01*
X0466563Y0050804D01*
X0466629Y0050928D01*
X0466700Y0051051D01*
X0466773Y0051171D01*
X0466850Y0051289D01*
X0466930Y0051405D01*
X0467014Y0051518D01*
X0467100Y0051629D01*
X0467190Y0051738D01*
X0467283Y0051844D01*
X0467378Y0051947D01*
X0467477Y0052048D01*
X0467578Y0052146D01*
X0467682Y0052241D01*
X0467789Y0052333D01*
X0467898Y0052422D01*
X0468010Y0052507D01*
X0468124Y0052590D01*
X0468240Y0052670D01*
X0468359Y0052746D01*
X0468480Y0052818D01*
X0468602Y0052888D01*
X0468727Y0052953D01*
X0468853Y0053016D01*
X0468981Y0053074D01*
X0469111Y0053129D01*
X0469242Y0053181D01*
X0469375Y0053228D01*
X0469509Y0053272D01*
X0469644Y0053313D01*
X0469780Y0053349D01*
X0469917Y0053381D01*
X0470055Y0053410D01*
X0470193Y0053435D01*
X0470333Y0053455D01*
X0470473Y0053472D01*
X0470613Y0053485D01*
X0470754Y0053494D01*
X0470894Y0053499D01*
X0471035Y0053500D01*
X0471176Y0053497D01*
X0471317Y0053490D01*
X0471457Y0053479D01*
X0471597Y0053464D01*
X0471737Y0053445D01*
X0471876Y0053423D01*
X0472014Y0053396D01*
X0472152Y0053366D01*
X0472288Y0053331D01*
X0472424Y0053293D01*
X0472558Y0053251D01*
X0472692Y0053205D01*
X0472824Y0053156D01*
X0472954Y0053102D01*
X0473083Y0053045D01*
X0473210Y0052985D01*
X0473336Y0052921D01*
X0473459Y0052853D01*
X0473581Y0052782D01*
X0473701Y0052708D01*
X0473818Y0052630D01*
X0473933Y0052549D01*
X0474046Y0052465D01*
X0474157Y0052378D01*
X0474265Y0052287D01*
X0474370Y0052194D01*
X0474473Y0052097D01*
X0474573Y0051998D01*
X0474670Y0051896D01*
X0474764Y0051791D01*
X0474855Y0051684D01*
X0474943Y0051574D01*
X0475028Y0051462D01*
X0475110Y0051347D01*
X0475189Y0051230D01*
X0475264Y0051111D01*
X0475336Y0050990D01*
X0475404Y0050867D01*
X0475469Y0050742D01*
X0475531Y0050615D01*
X0475588Y0050486D01*
X0475643Y0050356D01*
X0475693Y0050225D01*
X0475740Y0050092D01*
X0475783Y0049958D01*
X0475822Y0049822D01*
X0475857Y0049686D01*
X0475889Y0049549D01*
X0475916Y0049411D01*
X0475940Y0049272D01*
X0475960Y0049132D01*
X0475976Y0048992D01*
X0475988Y0048852D01*
X0475996Y0048711D01*
X0476000Y0048570D01*
X0476000Y0048430D01*
X0475996Y0048289D01*
X0475988Y0048148D01*
X0475976Y0048008D01*
X0475960Y0047868D01*
X0475940Y0047728D01*
X0475916Y0047589D01*
X0475889Y0047451D01*
X0475857Y0047314D01*
X0475822Y0047178D01*
X0475783Y0047042D01*
X0475740Y0046908D01*
X0475693Y0046775D01*
X0475643Y0046644D01*
X0475588Y0046514D01*
X0475531Y0046385D01*
X0475469Y0046258D01*
X0475404Y0046133D01*
X0475336Y0046010D01*
X0475264Y0045889D01*
X0475189Y0045770D01*
X0475110Y0045653D01*
X0475028Y0045538D01*
X0474943Y0045426D01*
X0474855Y0045316D01*
X0474764Y0045209D01*
X0474670Y0045104D01*
X0474573Y0045002D01*
X0474473Y0044903D01*
X0474370Y0044806D01*
X0474265Y0044713D01*
X0474157Y0044622D01*
X0474046Y0044535D01*
X0473933Y0044451D01*
X0473818Y0044370D01*
X0473701Y0044292D01*
X0473581Y0044218D01*
X0473459Y0044147D01*
X0473336Y0044079D01*
X0473210Y0044015D01*
X0473083Y0043955D01*
X0472954Y0043898D01*
X0472824Y0043844D01*
X0472692Y0043795D01*
X0472558Y0043749D01*
X0472424Y0043707D01*
X0472288Y0043669D01*
X0472152Y0043634D01*
X0472014Y0043604D01*
X0471876Y0043577D01*
X0471737Y0043555D01*
X0471597Y0043536D01*
X0471457Y0043521D01*
X0471317Y0043510D01*
X0471176Y0043503D01*
X0471035Y0043500D01*
X0470894Y0043501D01*
X0470754Y0043506D01*
X0470613Y0043515D01*
X0470473Y0043528D01*
X0470333Y0043545D01*
X0470193Y0043565D01*
X0470055Y0043590D01*
X0469917Y0043619D01*
X0469780Y0043651D01*
X0469644Y0043687D01*
X0469509Y0043728D01*
X0469375Y0043772D01*
X0469242Y0043819D01*
X0469111Y0043871D01*
X0468981Y0043926D01*
X0468853Y0043984D01*
X0468727Y0044047D01*
X0468602Y0044112D01*
X0468480Y0044182D01*
X0468359Y0044254D01*
X0468240Y0044330D01*
X0468124Y0044410D01*
X0468010Y0044493D01*
X0467898Y0044578D01*
X0467789Y0044667D01*
X0467682Y0044759D01*
X0467578Y0044854D01*
X0467477Y0044952D01*
X0467378Y0045053D01*
X0467283Y0045156D01*
X0467190Y0045262D01*
X0467100Y0045371D01*
X0467014Y0045482D01*
X0466930Y0045595D01*
X0466850Y0045711D01*
X0466773Y0045829D01*
X0466700Y0045949D01*
X0466629Y0046072D01*
X0466563Y0046196D01*
X0466500Y0046322D01*
X0466440Y0046449D01*
X0466384Y0046578D01*
X0466332Y0046709D01*
X0466283Y0046841D01*
X0466238Y0046975D01*
X0466197Y0047110D01*
X0466160Y0047246D01*
X0466126Y0047382D01*
X0466097Y0047520D01*
X0466071Y0047659D01*
X0466050Y0047798D01*
X0466032Y0047938D01*
X0466018Y0048078D01*
X0466008Y0048218D01*
X0466002Y0048359D01*
X0466000Y0048500D01*
M02*
