G75*
%MOIN*%
%OFA0B0*%
%FSLAX25Y25*%
%IPPOS*%
%LPD*%
%AMOC8*
5,1,8,0,0,1.08239X$1,22.5*
%
%ADD10C,0.06500*%
%ADD11R,0.07400X0.07400*%
%ADD12C,0.07400*%
%ADD13C,0.05600*%
%ADD14R,0.04724X0.03150*%
%ADD15OC8,0.05600*%
%ADD16R,0.03150X0.04724*%
%ADD17C,0.05550*%
%ADD18R,0.05550X0.05550*%
%ADD19C,0.00700*%
%ADD20OC8,0.03500*%
D10*
X0156000Y0013500D03*
X0176000Y0018500D03*
X0196000Y0018500D03*
X0216000Y0013500D03*
X0216000Y0023500D03*
X0171000Y0033500D03*
X0161000Y0033500D03*
X0156000Y0023500D03*
D11*
X0066000Y0073500D03*
X0041000Y0073500D03*
D12*
X0031000Y0073500D03*
X0021000Y0073500D03*
X0011000Y0073500D03*
X0056000Y0073500D03*
X0081000Y0078500D03*
X0081000Y0048500D03*
D13*
X0101000Y0045700D02*
X0101000Y0051300D01*
X0111000Y0051300D02*
X0111000Y0045700D01*
X0121000Y0045700D02*
X0121000Y0051300D01*
X0131000Y0051300D02*
X0131000Y0045700D01*
X0141000Y0045700D02*
X0141000Y0051300D01*
X0151000Y0051300D02*
X0151000Y0045700D01*
X0161000Y0045700D02*
X0161000Y0051300D01*
X0171000Y0051300D02*
X0171000Y0045700D01*
X0181000Y0045700D02*
X0181000Y0051300D01*
X0191000Y0051300D02*
X0191000Y0045700D01*
X0201000Y0045700D02*
X0201000Y0051300D01*
X0211000Y0051300D02*
X0211000Y0045700D01*
X0221000Y0045700D02*
X0221000Y0051300D01*
X0231000Y0051300D02*
X0231000Y0045700D01*
X0231000Y0075700D02*
X0231000Y0081300D01*
X0221000Y0081300D02*
X0221000Y0075700D01*
X0211000Y0075700D02*
X0211000Y0081300D01*
X0201000Y0081300D02*
X0201000Y0075700D01*
X0191000Y0075700D02*
X0191000Y0081300D01*
X0181000Y0081300D02*
X0181000Y0075700D01*
X0171000Y0075700D02*
X0171000Y0081300D01*
X0161000Y0081300D02*
X0161000Y0075700D01*
X0151000Y0075700D02*
X0151000Y0081300D01*
X0141000Y0081300D02*
X0141000Y0075700D01*
X0131000Y0075700D02*
X0131000Y0081300D01*
X0121000Y0081300D02*
X0121000Y0075700D01*
X0111000Y0075700D02*
X0111000Y0081300D01*
X0101000Y0081300D02*
X0101000Y0075700D01*
D14*
X0101000Y0037043D03*
X0101000Y0029957D03*
X0316000Y0029957D03*
X0326000Y0029957D03*
X0336000Y0029957D03*
X0346000Y0029957D03*
X0356000Y0029957D03*
X0366000Y0029957D03*
X0376000Y0029957D03*
X0386000Y0029957D03*
X0386000Y0037043D03*
X0376000Y0037043D03*
X0366000Y0037043D03*
X0356000Y0037043D03*
X0346000Y0037043D03*
X0336000Y0037043D03*
X0326000Y0037043D03*
X0316000Y0037043D03*
X0316000Y0059957D03*
X0326000Y0059957D03*
X0336000Y0059957D03*
X0366000Y0059957D03*
X0376000Y0059957D03*
X0386000Y0059957D03*
X0386000Y0067043D03*
X0376000Y0067043D03*
X0366000Y0067043D03*
X0336000Y0067043D03*
X0326000Y0067043D03*
X0316000Y0067043D03*
D15*
X0021000Y0018500D03*
X0021000Y0028500D03*
D16*
X0037457Y0018500D03*
X0044543Y0018500D03*
D17*
X0316000Y0023500D03*
X0326000Y0023500D03*
X0336000Y0023500D03*
X0346000Y0023500D03*
X0356000Y0023500D03*
X0366000Y0023500D03*
X0376000Y0023500D03*
X0386000Y0023500D03*
X0386000Y0073500D03*
X0376000Y0073500D03*
X0366000Y0073500D03*
X0336000Y0073500D03*
X0326000Y0073500D03*
X0316000Y0073500D03*
D18*
X0346000Y0073500D03*
X0356000Y0073500D03*
D19*
X0355750Y0073750D01*
X0346000Y0073750D01*
X0346000Y0073500D01*
X0346000Y0073750D02*
X0343750Y0073750D01*
X0330625Y0086875D01*
X0189250Y0086875D01*
X0181000Y0078625D01*
X0181000Y0078500D01*
X0181000Y0078625D02*
X0171250Y0078625D01*
X0171000Y0078500D01*
X0170875Y0078625D01*
X0169375Y0078625D01*
X0162625Y0085375D01*
X0159250Y0085375D01*
X0157188Y0083313D01*
X0153625Y0086875D01*
X0070000Y0086875D01*
X0056875Y0073750D01*
X0056125Y0073750D01*
X0056000Y0073500D01*
X0066000Y0073500D02*
X0066250Y0073750D01*
X0076375Y0073750D01*
X0080875Y0078250D01*
X0081000Y0078500D01*
X0081250Y0078625D01*
X0088000Y0085375D01*
X0102625Y0085375D01*
X0109375Y0078625D01*
X0110875Y0078625D01*
X0111000Y0078500D01*
X0101000Y0078500D02*
X0100750Y0078250D01*
X0087625Y0078250D01*
X0077875Y0068500D01*
X0044500Y0068500D01*
X0044500Y0018625D01*
X0044543Y0018500D01*
X0037457Y0018500D02*
X0037375Y0018625D01*
X0021250Y0018625D01*
X0021000Y0018500D01*
X0021000Y0028500D02*
X0021250Y0028750D01*
X0021250Y0037000D01*
X0029125Y0044875D01*
X0029125Y0065500D01*
X0021250Y0073375D01*
X0021000Y0073500D01*
X0031000Y0073375D02*
X0031000Y0073500D01*
X0031000Y0073375D02*
X0040750Y0073375D01*
X0041000Y0073500D01*
X0044500Y0070000D01*
X0044500Y0068500D01*
X0141000Y0078500D02*
X0155125Y0064375D01*
X0155125Y0045625D01*
X0157750Y0043000D01*
X0157750Y0038500D01*
X0161125Y0033625D02*
X0161000Y0033500D01*
X0157750Y0030250D01*
X0101125Y0030250D01*
X0101000Y0029957D01*
X0101000Y0037043D02*
X0101125Y0037375D01*
X0101125Y0048250D01*
X0101000Y0048500D01*
X0157000Y0052375D02*
X0160750Y0048625D01*
X0161000Y0048500D01*
X0161125Y0048250D01*
X0161125Y0033625D01*
X0170875Y0033625D02*
X0171000Y0033500D01*
X0170875Y0033250D01*
X0161125Y0023500D01*
X0156000Y0023500D01*
X0176000Y0018500D02*
X0181000Y0023500D01*
X0216000Y0023500D01*
X0196000Y0018500D02*
X0196000Y0018250D01*
X0191500Y0013750D01*
X0156250Y0013750D01*
X0156000Y0013500D01*
X0181000Y0023500D02*
X0181000Y0048500D01*
X0171000Y0048500D02*
X0170875Y0048250D01*
X0170875Y0033625D01*
X0196000Y0044875D02*
X0199375Y0041500D01*
X0204250Y0041500D01*
X0230875Y0014875D01*
X0373000Y0014875D01*
X0381250Y0023125D01*
X0381250Y0042625D01*
X0366250Y0057625D01*
X0366250Y0059875D01*
X0366000Y0059957D01*
X0370000Y0067375D02*
X0376000Y0061375D01*
X0376000Y0059957D01*
X0380875Y0062500D02*
X0383125Y0060250D01*
X0385750Y0060250D01*
X0386000Y0059957D01*
X0386000Y0067043D02*
X0386125Y0067375D01*
X0386125Y0073375D01*
X0386000Y0073500D01*
X0376000Y0073500D02*
X0376000Y0067043D01*
X0370000Y0067375D02*
X0370000Y0075250D01*
X0361000Y0084250D01*
X0340000Y0075250D02*
X0329875Y0085375D01*
X0227875Y0085375D01*
X0221000Y0078500D01*
X0231000Y0078500D02*
X0231250Y0078250D01*
X0260125Y0078250D01*
X0274375Y0064000D01*
X0344875Y0064000D01*
X0371500Y0037375D01*
X0376000Y0037375D01*
X0376000Y0037043D01*
X0378625Y0034000D02*
X0379750Y0035125D01*
X0379750Y0038875D01*
X0349375Y0069250D01*
X0343000Y0069250D01*
X0340000Y0072250D01*
X0340000Y0075250D01*
X0336250Y0073375D02*
X0336000Y0073500D01*
X0336250Y0073375D02*
X0336250Y0067375D01*
X0336000Y0067043D01*
X0326125Y0067375D02*
X0326000Y0067043D01*
X0326125Y0067375D02*
X0326125Y0073375D01*
X0326000Y0073500D01*
X0316000Y0073500D02*
X0316000Y0067043D01*
X0316000Y0060250D02*
X0316000Y0059957D01*
X0316000Y0060250D02*
X0275875Y0060250D01*
X0273250Y0062875D01*
X0201625Y0062875D01*
X0199000Y0060250D01*
X0201250Y0048625D02*
X0212500Y0059875D01*
X0272125Y0059875D01*
X0313375Y0055375D02*
X0227875Y0055375D01*
X0221000Y0048500D01*
X0219250Y0056875D02*
X0211000Y0048625D01*
X0211000Y0048500D01*
X0201250Y0048625D02*
X0201000Y0048500D01*
X0196000Y0044875D02*
X0196000Y0073375D01*
X0200875Y0078250D01*
X0201000Y0078500D01*
X0161125Y0078250D02*
X0161000Y0078500D01*
X0161125Y0078250D02*
X0161125Y0058375D01*
X0171000Y0048500D01*
X0157000Y0052375D02*
X0157000Y0083125D01*
X0157188Y0083313D01*
X0219250Y0056875D02*
X0318625Y0056875D01*
X0321625Y0059875D01*
X0325750Y0059875D01*
X0326000Y0059957D01*
X0331000Y0059875D02*
X0335875Y0059875D01*
X0336000Y0059957D01*
X0331375Y0037375D02*
X0313375Y0055375D01*
X0307000Y0051625D02*
X0236500Y0051625D01*
X0231250Y0048250D02*
X0231000Y0048500D01*
X0231250Y0048250D02*
X0257500Y0048250D01*
X0268375Y0037375D01*
X0316000Y0037375D01*
X0316000Y0037043D01*
X0321250Y0037375D02*
X0307000Y0051625D01*
X0267625Y0034000D02*
X0256375Y0045250D01*
X0267625Y0034000D02*
X0338875Y0034000D01*
X0339625Y0034750D01*
X0339625Y0036250D01*
X0343375Y0040000D01*
X0359500Y0040000D01*
X0362125Y0037375D01*
X0365875Y0037375D01*
X0366000Y0037043D01*
X0363250Y0034000D02*
X0360250Y0037000D01*
X0356125Y0037000D01*
X0356000Y0037043D01*
X0346000Y0037043D02*
X0346000Y0035875D01*
X0340000Y0029875D01*
X0340000Y0021625D01*
X0336250Y0017875D01*
X0232000Y0017875D01*
X0316000Y0023500D02*
X0316000Y0029957D01*
X0326000Y0029957D02*
X0326125Y0029875D01*
X0326125Y0023500D01*
X0326000Y0023500D01*
X0336000Y0023500D02*
X0336250Y0023500D01*
X0336250Y0029875D01*
X0336000Y0029957D01*
X0346000Y0029957D02*
X0346000Y0023500D01*
X0356000Y0023500D02*
X0356125Y0023500D01*
X0356125Y0029875D01*
X0356000Y0029957D01*
X0366000Y0029957D02*
X0366250Y0029875D01*
X0366250Y0023500D01*
X0366000Y0023500D01*
X0376000Y0023500D02*
X0376000Y0029957D01*
X0386000Y0029957D02*
X0386125Y0029875D01*
X0386125Y0023500D01*
X0386000Y0023500D01*
X0378625Y0034000D02*
X0363250Y0034000D01*
X0385750Y0037375D02*
X0386000Y0037043D01*
X0385750Y0037375D02*
X0385750Y0040000D01*
X0384250Y0041500D01*
X0336000Y0037043D02*
X0335875Y0037375D01*
X0331375Y0037375D01*
X0326000Y0037043D02*
X0325750Y0037375D01*
X0321250Y0037375D01*
X0366000Y0067043D02*
X0366250Y0067375D01*
X0366250Y0073375D01*
X0366000Y0073500D01*
D20*
X0361000Y0084250D03*
X0380875Y0062500D03*
X0331000Y0059875D03*
X0272125Y0059875D03*
X0236500Y0051625D03*
X0256375Y0045250D03*
X0199000Y0060250D03*
X0157750Y0038500D03*
X0232000Y0017875D03*
X0384250Y0041500D03*
M02*
