G75*
%MOIN*%
%OFA0B0*%
%FSLAX25Y25*%
%IPPOS*%
%LPD*%
%AMOC8*
5,1,8,0,0,1.08239X$1,22.5*
%
%ADD10C,0.07300*%
%ADD11R,0.08200X0.08200*%
%ADD12C,0.08200*%
%ADD13C,0.06400*%
%ADD14C,0.10800*%
%ADD15R,0.05524X0.03950*%
%ADD16OC8,0.06400*%
%ADD17R,0.03950X0.05524*%
%ADD18C,0.06350*%
%ADD19R,0.06350X0.06350*%
D10*
X0156000Y0013500D03*
X0176000Y0018500D03*
X0196000Y0018500D03*
X0216000Y0013500D03*
X0216000Y0023500D03*
X0171000Y0033500D03*
X0161000Y0033500D03*
X0156000Y0023500D03*
D11*
X0066000Y0073500D03*
X0041000Y0073500D03*
D12*
X0031000Y0073500D03*
X0021000Y0073500D03*
X0011000Y0073500D03*
X0056000Y0073500D03*
X0081000Y0078500D03*
X0081000Y0048500D03*
D13*
X0101000Y0045700D02*
X0101000Y0051300D01*
X0111000Y0051300D02*
X0111000Y0045700D01*
X0121000Y0045700D02*
X0121000Y0051300D01*
X0131000Y0051300D02*
X0131000Y0045700D01*
X0141000Y0045700D02*
X0141000Y0051300D01*
X0151000Y0051300D02*
X0151000Y0045700D01*
X0161000Y0045700D02*
X0161000Y0051300D01*
X0171000Y0051300D02*
X0171000Y0045700D01*
X0181000Y0045700D02*
X0181000Y0051300D01*
X0191000Y0051300D02*
X0191000Y0045700D01*
X0201000Y0045700D02*
X0201000Y0051300D01*
X0211000Y0051300D02*
X0211000Y0045700D01*
X0221000Y0045700D02*
X0221000Y0051300D01*
X0231000Y0051300D02*
X0231000Y0045700D01*
X0231000Y0075700D02*
X0231000Y0081300D01*
X0221000Y0081300D02*
X0221000Y0075700D01*
X0211000Y0075700D02*
X0211000Y0081300D01*
X0201000Y0081300D02*
X0201000Y0075700D01*
X0191000Y0075700D02*
X0191000Y0081300D01*
X0181000Y0081300D02*
X0181000Y0075700D01*
X0171000Y0075700D02*
X0171000Y0081300D01*
X0161000Y0081300D02*
X0161000Y0075700D01*
X0151000Y0075700D02*
X0151000Y0081300D01*
X0141000Y0081300D02*
X0141000Y0075700D01*
X0131000Y0075700D02*
X0131000Y0081300D01*
X0121000Y0081300D02*
X0121000Y0075700D01*
X0111000Y0075700D02*
X0111000Y0081300D01*
X0101000Y0081300D02*
X0101000Y0075700D01*
D14*
X0021000Y0048500D03*
X0471000Y0048500D03*
D15*
X0386000Y0037043D03*
X0376000Y0037043D03*
X0366000Y0037043D03*
X0356000Y0037043D03*
X0346000Y0037043D03*
X0336000Y0037043D03*
X0326000Y0037043D03*
X0316000Y0037043D03*
X0316000Y0029957D03*
X0326000Y0029957D03*
X0336000Y0029957D03*
X0346000Y0029957D03*
X0356000Y0029957D03*
X0366000Y0029957D03*
X0376000Y0029957D03*
X0386000Y0029957D03*
X0386000Y0059957D03*
X0376000Y0059957D03*
X0366000Y0059957D03*
X0336000Y0059957D03*
X0326000Y0059957D03*
X0316000Y0059957D03*
X0316000Y0067043D03*
X0326000Y0067043D03*
X0336000Y0067043D03*
X0366000Y0067043D03*
X0376000Y0067043D03*
X0386000Y0067043D03*
X0101000Y0037043D03*
X0101000Y0029957D03*
D16*
X0021000Y0018500D03*
X0021000Y0028500D03*
D17*
X0037457Y0018500D03*
X0044543Y0018500D03*
D18*
X0316000Y0023500D03*
X0326000Y0023500D03*
X0336000Y0023500D03*
X0346000Y0023500D03*
X0356000Y0023500D03*
X0366000Y0023500D03*
X0376000Y0023500D03*
X0386000Y0023500D03*
X0386000Y0073500D03*
X0376000Y0073500D03*
X0366000Y0073500D03*
X0336000Y0073500D03*
X0326000Y0073500D03*
X0316000Y0073500D03*
D19*
X0346000Y0073500D03*
X0356000Y0073500D03*
M02*
